<svg version="1.1" id="Camada_1" xmlns="http://www.w3.org/2000/svg" x="0" y="0" viewBox="0 0 1000 505" style="enable-background:new 0 0 1000 505" xml:space="preserve"><style>.st0{fill:#fff}.st1{fill:#1d1d1b}</style><path class="st0" d="M989.3 130.6c-6.9-6.2-15.9-9.5-25.2-9.3H598.7L674.9 0l-234 121.4h-358c-11.5.3-22.6 4.3-31.7 11.4-9.4 6.8-16.4 16.4-20.3 27.3L2.1 248.4c-1.4 4-2.1 8.2-2.1 12.4-.1 9.2 3.7 18 10.5 24.3 6.9 6.1 15.8 9.5 25 9.3h401L358.2 505l132-210.6h423.9c12-.2 23.7-4.1 33.4-11.2 9.6-6.8 16.9-16.4 20.8-27.4l29.5-88.3c1.4-4 2.1-8.1 2.1-12.3.2-9.4-3.7-18.3-10.6-24.6z"/><path class="st1" d="M35.6 282.6c-16.8 0-27.8-13.7-22.1-30.5l28.8-88.3c5.6-16.9 23.8-30.5 40.7-30.5h881.1c16.9 0 28.2 13.6 22.6 30.5l-29.5 88.3c-5.6 16.8-24 30.5-42.8 30.5H35.6z"/><path class="st1" d="m625.7 38.7 1.4-.5L422 366.8 408.5 403 642.4 30l-16.7 8.7z"/><path d="M627.4 37.9 402.2 154.5l106.5-21.2L422 366.8 627.4 37.9z" style="fill:#e1251b"/><path class="st1" d="M93.4 179.3c.1-.3.1-.6.1-.8v-.6c0-1.2-.4-2.4-1-3.3-.9-1.2-2.3-2-3.8-2.1H75c-2.5.1-4.7 1.6-5.5 3.9v.1l-4 11-13.2 38-4 10.5c-.2.5-.3 1-.3 1.5v.6c-.1 2.8 2 5.1 4.8 5.4h14.7c2.4-.2 4.4-1.8 5.2-4.1l20.8-60v-.1zM784.5 190l-.5-4.7v-.2c-.7-4.7-3.6-8.8-7.8-11l-.4-.2-.4-.1c-2.8-.8-5.7-1.2-8.6-1.3H723c-2.3.3-4.3 1.8-5.1 4l-.1.4-3.5 9.4v-.6c.2-4.7-2.3-9.1-6.4-11.3-3.9-1.9-8.1-2.1-13.3-2.1h-25.5c-5.7-.2-11.3 1.1-16.3 3.7-4.5 2.6-7.8 6.9-9.3 11.9l-.7 2.1v-.6c.1-3.9-1-7.7-3.1-10.9-2.2-3-5.5-5.1-9.2-5.8l-5 .1-47.1-.2c-2.6 0-4.9 1.7-5.7 4.2l-3.9 10.8-12.8 36.6c-.8-.9-1.9-1.4-3-1.6h-39l15-43V178c0-1.3-.4-2.5-1.2-3.5-1-1.3-2.5-2.1-4.1-2.1H510c-2.4.2-4.4 1.8-5.2 4.1l-3.7 10.7-.6 1.8c-.2-5.1-2.8-9.8-7.1-12.6-4.9-2.9-10.5-4.2-16.1-3.9H442c-2.4.2-4.4 1.8-5.2 4.1l-3.3 9.6v.1c-.1.3-.1.6-.1 1v.6c0 2.9 2.1 5.3 5 5.5h35.9L473 197h-37.3c-3.4-.2-6.6 1.2-8.8 3.7l3.6-11-.5-4.6v-.1c-.7-4.7-3.6-8.8-7.8-11l-.4-.2-.4-.1c-2.8-.7-5.7-1.2-8.6-1.3h-41.5c-2.6 0-4.8 1.7-5.7 4.1l-4.1 11.2-3.3 9.3h-38.8c-2.4.2-4.4 1.8-5.2 4.1l-3.4 10v.2c-.1.3-.2.6-.2.9v.7c-.1 2.7 1.8 5.1 4.5 5.6h11.8l-.9 2.7c-.7 1-1.2 1.3-1.5 1.4h-19.9l9.8-27.6c.7-1 1.1-1.3 1.5-1.4l36.6.1c2.4 0 4.6-1.5 5.5-3.8v-.1l3.7-10.1v-.3c.1-.3.1-.6.1-1v-.3c.1-2.7-1.9-5-4.5-5.4h-40c-5.7-.2-11.3 1.1-16.3 3.7-3.3 1.9-6 4.8-7.8 8.3-.2-4.2-2.7-8-6.4-9.9-3.9-1.9-8.1-2.1-13.3-2.1H248c-5.7-.2-11.3 1.1-16.3 3.7-1 .6-2 1.3-2.8 2v-.3c0-1.3-.4-2.5-1.2-3.5-1-1.3-2.5-2-4.1-2h-55.3c-2.6.1-4.8 1.7-5.7 4.1l-2 5.7c-.5-1.4-1.1-2.7-1.9-3.9-2.2-3.1-5.5-5.1-9.2-5.8H103c-2.5 0-4.6 1.5-5.5 3.8v.1l-3.9 11.2-12.8 37.8-4 10.9v.2c-.1.3-.1.6-.2.9v.5c0 1.2.4 2.4 1.1 3.4.9 1.2 2.3 2 3.8 2.1h14.2c2.4-.2 4.5-1.9 5.2-4.2l16.2-45.8H135v.3l-14.8 42.5v1.6c0 1.2.4 2.4 1.1 3.4.9 1.2 2.3 2 3.8 2.1h14.3c2.4-.2 4.4-1.7 5.3-4v-.1l16.3-46.9c.8.7 1.8 1.1 2.9 1.1H177l-10.7 31.6-3.9 10.8c-.1.3-.2.7-.3 1v.9c0 1.3.4 2.5 1.2 3.5 1 1.2 2.5 1.9 4 2h13.1c2.6-.1 4.9-1.8 5.7-4.3l15.7-45.7h17.6c.4 0 .7-.1 1.1-.1l-11.1 32.4v.4c-.2 1-.2 1.9-.2 2.9-.1 4 1.7 7.9 4.8 10.4 4 2.8 8.9 4.2 13.8 3.9h43.1c2.4-.2 4.4-1.7 5.3-4l3-8.2c1 3.5 3.3 6.6 6.4 8.6 4.9 2.7 10.4 4 16 3.7h21.6c5.6.2 11.2-1 16.1-3.6 2-1.2 3.8-2.7 5.2-4.4l-.2.5c-.2.5-.3 1-.4 1.5v.6c0 1.3.4 2.5 1.2 3.5 1 1.3 2.5 2 4.1 2h13.6c2.6 0 4.9-1.7 5.7-4.2l6.6-18.8h14.1l3.6 18.6c.5 2.5 2.7 4.3 5.2 4.3h15c1.6 0 3.2-.7 4.3-1.9.9-1 1.4-2.2 1.5-3.5v-.6c1 1.4 2.2 2.5 3.7 3.3 4.2 2.2 8.8 3.2 13.5 2.9h41.5c2.5 0 4.8-1.7 5.6-4.1l4.4-12.7c-.1.7-.2 1.4-.2 2.1 0 1.5.2 3 .7 4.5 1.1 3.6 3.7 6.5 7.1 7.9 3.8 1.6 7.9 2.3 11.9 2.1h41.7c1.4-.2 2.7-.9 3.6-1.9.9 1.1 2.1 1.7 3.5 1.9H571c2.4-.2 4.4-1.8 5.2-4.1l16-45.7h.7L578 236.2c-.1.3-.1.6-.2.9v.8c-.1 2.8 2 5.2 4.8 5.5H594c2.4-.2 4.4-1.8 5.2-4l15.8-45.6h.8v.3l-14.7 42.4V238c0 1.2.4 2.4 1.1 3.3.9 1.2 2.2 2 3.7 2.1h15c2.2-.2 4.2-1.6 5.1-3.7v-.2l13.2-38-8.4 24.3v.4c-.2 1-.3 2-.3 2.9-.1 4 1.7 7.9 4.8 10.4 4 2.8 8.9 4.2 13.8 3.9h43.4c2-.3 3.8-1.5 4.7-3.3.2.5.5 1 .8 1.4 1 1.2 2.5 2 4.1 2h44.6c5.5.2 11.1-1 16-3.4 4.3-2.4 7.4-6.5 8.6-11.2l13.2-38.9zm-539.1 4.8c.3-.6.9-1.1 1.5-1.4l20.2.2-1.4 3.9h-21.2l.9-2.7zm30.1 33.6 3.4 1.2-3.4-1.2zm3.6-3.7-.2-.3c-1-1.2-2.5-2-4-2h-39.1l1.2-3.6h37c2.6 0 5.1-.7 7.2-2.2.4-.3.7-.6 1-.9l-3.1 9zm124.1-27.2c-.2.6-.5 1.2-1 1.7-.2.1-.2.2-.8.2h-18.9l2.1-6h19.8l-1.2 4.1zm14.2 27.1v.2c-.2.8-.4 1.6-.5 2.3l-1.8-7.8c1.7-1 3.2-2.2 4.6-3.7l1.5-1.8-3.8 10.8zm46.7-2.3H443l1.4-3.9h21.1l-1.4 3.9zm202.4-27.5c.3-.6.9-1.1 1.5-1.5l20.2.2-1.4 3.9h-21.3l1-2.6zm34.2 30.6v.2c-.2-.4-.4-.8-.6-1.1-1-1.3-2.5-2.1-4.1-2.1l-39.1 2.7 1.3-3.6h36.9c2.6 0 5.1-.7 7.2-2.2.9-.7 1.8-1.5 2.4-2.5l-4 8.6zm47.3-3.3c0 .1-.4.3-2 .5h-18.4l10.4-29.1h19.7l-9.7 28.6zm198.5-33.2c-.2-5.1-2.8-9.8-7.1-12.7-4.9-2.9-10.5-4.2-16.1-3.9h-34.9c-2.6 0-4.8 1.7-5.7 4.1l-3.3 9.6v.1l-.1.6v1c0 1.3.4 2.5 1.2 3.5 1 1.3 2.5 2 4.1 2h35.5l-1.3 3.6h-37.3c-2.6 0-5.1.7-7.2 2.2-2 1.6-3.6 3.7-4.4 6.2l-6.4 18.2c-.9-.7-1.9-1-3-1H824l10-27.5c.9-1.1 2.3-1.8 3.8-1.7h33.7c2.3-.3 4.3-1.8 5.1-4l3.2-9.7v-.2c.1-.3.1-.6.1-.9v-.4c.1-2.7-1.9-5.1-4.6-5.4l-38-37.3c-3.5 0-6.9.3-10.3.9h-.4l-.3.1c-5.9 2.1-10.8 6.3-13.9 11.7l1.9-5.4c.2-.5.3-1.1.4-1.6v-.5c0-1.2-.4-2.4-1-3.3-.9-1.2-2.2-2-3.7-2.1h-14c-2.5.1-4.8 1.7-5.6 4l-4.2 11.4-13.1 37.8-4 10.4c-.2.4-.3.9-.3 1.3v.7c0 1.3.4 2.5 1.2 3.5 1 1.2 2.5 2 4 2h13.8c2.6 0 4.8-1.7 5.7-4.1l4.5-12.8c-.2.8-.2 1.6-.2 2.5 0 1.5.2 3 .7 4.5 1.1 3.5 3.7 6.4 7.1 7.9 3.8 1.6 7.8 2.3 11.9 2.1H857c2.4-.2 4.5-1.8 5.3-4.1l1.5-4.3c1 2.3 2.7 4.2 4.9 5.4 4.2 2.2 8.8 3.2 13.5 2.9h42c2.4-.3 4.4-1.8 5.2-4.1l11.8-34 5.5-15.5-.2 36.3zM910 222.3 889 186l1.4-3.9h21.1l-1.5 40.2z"/><path class="st0" d="M773.4 237.9v-.3l4-10.6 13.2-37.7 4.1-11.2c.2-.6.8-1.1 1.4-1.2h13.3c.5.1.8.6.7 1.1v.3l-20.6 59.5c-.2.6-.7 1.1-1.4 1.2h-13.7c-.7 0-1-.5-1-1.1zm-424.7-.1v-.3l4-10.7 12.8-37.5 4.1-11.2c.2-.6.7-1.1 1.4-1.2h41.3c2.6.1 5.1.5 7.6 1.2 3 1.6 5 4.5 5.4 7.8l.4 3.4-5.6 17.1c-1.4 3.8-5.7 9.7-10.1 9.9h-.4l4.8 20.8v.5c0 .7-.5 1.3-1.2 1.4h-15c-.4 0-.7-.3-.8-.7l-4.3-22.2h-21l-7.7 21.8c-.2.6-.7 1.1-1.4 1.2h-13.6c-.5 0-.8-.5-.8-1.1l.1-.2zm56.7-48.9-23.8.1-5.3 15h25.3c2.9 0 4.9-1.7 6.1-5.1l1.8-5.8c.2-2.7-1.3-3.7-4-4.2h-.1zM89 178.2l-20.7 59.6c-.2.6-.7 1-1.3 1.1H53.1c-.5-.1-.8-.5-.7-1v-.5l4-10.7 13.2-38 3.9-10.9c.2-.6.7-1 1.4-1.1h13.4c.5.1.8.6.7 1.1v.4zm6.4 60.8H81.8c-.5 0-.8-.5-.7-1.1v-.3l4-10.7 12.8-37.7 3.9-11.1c.2-.6.7-1 1.4-1.1h45.5c5.7 1.2 8.6 5.4 8.7 12.4l-16.9 48.5c-.2.6-.7 1-1.4 1.1h-13.9c-.5-.1-.8-.6-.8-1.1v-.3l14.6-42.2c1.4-4.3-.4-6.4-5.6-6.3h-19.5l-17.1 48.7c-.2.7-.7 1.1-1.4 1.2zm421.4-62.1h7.1c.5 0 .8.5.8 1.1v.2l-15.8 45.5c0 2 1 3.1 3.3 3.2h40.5c.5.1.8.6.7 1.1v.3l-3.3 9.5c-.2.6-.7 1-1.3 1.1h-41.2c-8.5 0-13.4-2.3-14.8-6.9-.6-1.7-.7-3.5-.3-5.3l13.1-38.2 3.7-10.6c.2-.6.7-1.1 1.3-1.2l6.2.2zm-278.7 25.2h30.8l3.3-9.2c-.2-2.5-1.9-3.8-5-3.8l-20.7-.1c-2.2.5-4 1.9-5 3.9l-3.4 9.2zm37.5 26.3-3.5 9.4c-.2.6-.7 1-1.3 1.1H228c-11.9 0-15-5.6-13.9-11.9l12.8-37.6c2.6-8.3 9.6-12.5 21.2-12.5h25.5c9.9 0 15 1.3 15.1 9 .1 1.4-.2 2.8-.7 4l-6.6 19c-.9 3.3-3.9 5.6-7.4 5.5h-40.2l-3 8.6c.3 2.7 1.7 4.1 4.2 4.1h39.8c.5 0 .8.5.8 1.1v.2zm-92.2-39.3h-19.1c-.5-.1-.8-.6-.7-1.1v-.2l3.4-9.7c.2-.6.7-1.1 1.4-1.2h55.2c.5.1.9.5.8 1v.4l-3.4 9.6c-.2.6-.7 1.1-1.4 1.2h-20.8L182 237.8c-.2.6-.7 1.1-1.4 1.2h-13c-.5-.1-.9-.5-.8-1v-.4l3.9-10.9 12.6-37.5.1-.1zm263.5-.2h-8.4c-.5-.1-.8-.6-.8-1.1v-.2l3.2-9.5c.2-.6.7-1.1 1.3-1.2h35.1c11.9 0 18.2 4.3 18.7 12.3l-5.2 14.6-11.8 33.9c-.2.6-.7 1.1-1.4 1.2h-41.5c-9.9 0-14.9-3-15.1-9.1 0-1.3.2-2.7.5-3.9l6.6-18.9c.9-3.3 4-5.6 7.4-5.5H476l3-8.6c-.3-2.7-1.7-4.1-4.1-4.1l-28 .1zm25 25h-30.7l-3.3 9.2c.2 2.5 1.9 3.8 5.1 3.8h24.3l3.6-10.2 1-2.8zm166.6-24.3-16.8 48.3c-.2.6-.7 1-1.3 1h-14.2c-.5-.1-.8-.6-.7-1.1v-.3l14.6-42.1c1.4-4.3-.4-6.4-5.6-6.3h-2.7l-17.1 48.6c-.2.6-.7 1-1.3 1.1h-10.5c-.5-.1-.8-.5-.7-1v-.4l16.8-48.3h-10.1l-17 48.6c-.2.6-.7 1-1.3 1.1h-13.8c-.5-.1-.8-.6-.7-1.1v-.3l4-10.7 13.2-37.8 3.9-10.9c.2-.6.7-1.1 1.4-1.2l47.1.2h4c5.7 1.2 8.6 5.4 8.7 12.4l.1.2zm-281-11.3L354 188c-.2.6-.7 1-1.4 1.1l-37.2-.1c-2.2.5-4 1.9-5 3.9L299.7 223c.3 2.7 1.7 4.1 4.2 4.1h21.3c2.2-.5 4-2 5-3.9l3.3-9.2h-17.6c-.5-.1-.8-.6-.7-1.1v-.3l3.3-9.7c.2-.6.7-1.1 1.3-1.2h33.3l-8.6 24.9c-2.6 8.3-9.6 12.5-21.2 12.5h-21.6c-11.9 0-18.1-4-18.6-11.9l12.8-37.6c2.6-8.3 9.7-12.5 21.2-12.5h39.6c.5.1.8.6.7 1.1.1-.1.1 0 .1.1zm364.7-.2c.2-.6.7-1 1.3-1.1h43.1c2.6.1 5.1.5 7.6 1.2 3 1.6 5 4.5 5.4 7.8l.4 3.4-13.1 38.2c-1.8 7.6-8.5 11.4-20.2 11.4H702c-.5-.1-.9-.5-.8-1v-.4l3.9-10.6 13.1-37.8 4-11.1zm37.4 10.9h-24.7l-13.7 38.1h25.1c2.4.1 4.8-1.1 6-3.2l10.5-30.7c.5-1.7-.5-3.5-2.3-4-.2-.1-.5-.1-.7-.1l-.2-.1zm107.7-12h7.5c.5.1.8.6.7 1.1v.3l-3.1 9.3c-.2.6-.7 1-1.3 1.1H839c-3.4-.4-6.8 1.1-8.8 3.9l-11.3 31.2c-.1.6-.2 1.3-.1 1.9.1.7 1.3 1.1 3.5 1.3h38.5c.5 0 .8.5.8 1.1v.3l-3.2 9.2c-.2.6-.7 1.1-1.3 1.1h-39.4c-8.4 0-13.3-2.2-14.7-6.8-.6-1.7-.6-3.5-.3-5.3l13.1-38.2c2.5-5 6.9-8.8 12.2-10.7 3.1-.6 6.3-.9 9.5-.9h30.1l-.3.1zm50.5 36.9h-30.7l-3.3 9.2c.2 2.5 1.9 3.8 5.1 3.8h24.4l3.6-10.2.9-2.8zm19.1-10-11.8 33.9c-.2.6-.7 1-1.3 1.1h-41.6c-9.9 0-14.9-3-15-9.1 0-1.3.2-2.7.5-3.9l6.6-18.9c.9-3.3 4-5.6 7.4-5.5h40.4l3-8.6c-.3-2.7-1.7-4.1-4.2-4.1h-36.4c-.5 0-.8-.5-.8-1.1v-.3l3.2-9.4c.2-.6.7-1.1 1.4-1.2h35c11.9 0 18.2 4.3 18.7 12.3l-5.1 14.8zm-277.8-1.8h30.8l3.3-9.2c-.2-2.5-1.9-3.8-5.1-3.8l-20.7-.1c-2.2.5-4 1.9-5 3.9l-3.3 9.2zm37.5 26.3-3.5 9.5c-.2.6-.7 1-1.3 1H649c-11.9 0-15-5.6-13.9-11.9l12.8-37.6c2.6-8.3 9.6-12.5 21.2-12.5h25.5c9.9 0 15 1.3 15.1 9 .1 1.4-.2 2.8-.7 4l-6.6 19c-.9 3.3-4 5.6-7.4 5.5h-40l-3 8.6c.3 2.7 1.7 4.1 4.2 4.1H696c.5 0 .8.5.8 1.1l-.2.2z"/></svg>